<?xml version="1.0" encoding="utf-8"?>
<!-- Generator: Adobe Illustrator 22.0.0, SVG Export Plug-In . SVG Version: 6.00 Build 0)  -->
<svg version="1.1" id="Camada_1" xmlns="http://www.w3.org/2000/svg" xmlns:xlink="http://www.w3.org/1999/xlink" x="0px" y="0px"
	 viewBox="0 0 1274.5 1316" style="enable-background:new 0 0 1274.5 1316;" xml:space="preserve">
<style type="text/css">
	.st0{display:none;}
	.st1{fill:none;stroke:#000000;stroke-width:36;stroke-linecap:round;stroke-linejoin:round;stroke-miterlimit:10;}
	.st2{fill:#F84AA7;stroke:#F84AA7;stroke-width:23;stroke-miterlimit:10;}
</style>
<g id="Camada_1_1_" class="st0">
	
		<image style="display:inline;overflow:visible;enable-background:new    ;" width="1003" height="1501" xlink:href="84F4E53929D8AD4C.jpeg"  transform="matrix(0.9995 0 0 0.9995 12.0012 -191.8912)">
	</image>
</g>
<g id="Camada_2_1_">
	<path class="st1" d="M576.9,1292.3c0,0-21.6-256,23.5-327.6c0,0,18.1,63.3,73.4,59.1c0,0,4.9-5.4,16-4.4c0,0,16.5,15,22.6,18.9
		c6.1,3.9,11.6,3.4,17.2,2c5.6-1.5,6.7-4.9,20.1-5.4c0,0,3.2,0.3,4.2-2.7c1-3,1-5.7,6.9-4.4c5.9,1.3,20.9,4.2,22.9-15.7
		c0,0,20.9,1,63.1,22.9c0,0,15.6,16.2,41.8,7.1s59.5-14.7,69-14c9.5,0.7,23.2-11.8,26.2-18.6c2.9-6.9,8.5-32.1,8.5-39.2
		s3.2-40.2-16-73.9c-19.3-33.6-95.1-96.4-95.1-96.4s2-78.2-16.4-123.3s-49.4-132-96.1-220.4c0,0-31.4-57.6-38.5-76.5
		c-7.2-18.9-38.5-68-49-80.4c-10.5-12.5-25.2-29.5-33.7-43c-8.5-13.4-14.5-14.7-14.5-14.7s-10.6-5.7-16.2-15.2
		c-5.6-9.5-21.1-8.8-21.1-8.8s-11.8,2.9-19.6-2.7s-10.3-6.4-10.3-6.4s-5.7-5.4-16.2,0c0,0-16,11.1-24.5,20.4
		c-8.5,9.3-21.1,16-21.1,16l-29.7,22.6c0,0-10.3,7.7-5.4,22.6c4.9,14.9,6.9,13.5,5.2,24.5c0,0-7.2,2.3-8.6,11.8
		c-1.5,9.5-5.2,11.8,1.3,17s17.7,6.7,23.3,14.7c5.7,8,14.7,10.3,22.4,11.3s18.9,5.2,20.9,7.4c2,2.2,16.7,16.7,70.1,16
		c0,0,11.6-1.3,14,5.7c2.5,7,60.1,78.8,61.6,261.2c0,0-18.1-10.1-22.4-21.1c-4.2-11-20.3-38.7-33.3-53S606.3,560,606.3,560
		s-4.4-8.8-11.6-12.3s-13.5-7.4-13.5-7.4s-8.3-3.4-18.6,0.5c-10.3,3.9-19.6,5.7-26.8,3.7c-7.2-2-17-1.5-24.5,1.3s-10.3,3.4-18.9,1.3
		c0,0-11.1-5.4-24.8,5.4c0,0-4.4,12.8-10.1,14.5c0,0-22.6-28.7-64.2-46.4v-36.6c0,0,26.5-38.3,26.8-102.8l3.4-3.4
		c0,0,22.1-58.4,23.5-68c1.5-9.6,0.8-35.8-10.6-52c-11.4-16.2-41.7-54.7-56.7-93.7c-15-38.9-39.7-60.3-39.7-60.3s-1.5-1.8-4.9-2.7
		s-6.3-17.1-20-16.6c0,0-10.1-20.1-31.7-19.6s-28.1-7.4-28.1-7.4l38.1-35.1c0,0,0.5-2.5-2.7-2.9c-3.2-0.5-30.4,14.2-43.5,13.7
		c-13-0.5-38.3,2-48.6,6.4c-10.3,4.4-28,15.2-34.1,16.2c-6.2,1-19.1,0-29.2,41c0,0-30.9,2.3-40.2,12.8s-23.1,27.3-25.1,28.2
		c-2,1-20.4,23.3-21.4,26.5c-1,3.1-25.7,31.9-25.7,31.9s31.2-12.6,42-9.8c0,0-15.5,28.7-15,49s1.3,94,10.1,110.8s8.1,11.8,10.3,18.6
		c2.2,6.9,11.8,13.2,11.8,13.2s15.2,16.2,17.7,27.3c2.5,11.1,13.5,34.3,44.4,40.7c0,0,13-0.5,17.5,3.4s10.8,9.3,15.7,11.1
		c0,0,2.3,22.9,0.5,34.1c0,0-45.4,6.2-51.5,10.1c-6.1,3.9-8.8,7.8-7.7,17.5c1.2,9.6,13.2,53.3,6.9,73.6c0,0-16.7,11.1-18.1,12.3
		c-1.5,1.2-8.3,4.2-2.5,24c0,0,0.8,3.9-0.3,6.2c-1.1,2.3-0.8,16,0.8,19.6c0,0-16.7,37.3-16.5,77.3c0,0-1.5,16.5-3.4,25.8
		c-2,9.3,7.2,174.6,67,276.6s132.4,255,132.4,255h292.2V1292.3z"/>
</g>
<g>
	<path class="st2" d="M916.8,1227.4c0.3,0.6,0.5,1.1,0.5,1.6c0,0.3-0.2,0.8-0.5,1.4c-5.5,5-11.9,10.5-19.1,16.3
		c-7.3,5.8-14.9,11.2-22.9,16.1c-8,5-16.2,9.1-24.6,12.4c-8.4,3.3-16.6,4.9-24.5,4.9c-2.3,0-4.8-0.2-7.7-0.6c-2.8-0.4-5.5-1.1-8-2.3
		c-2.5-1.1-4.6-2.7-6.3-4.7s-2.5-4.5-2.5-7.6c0-4.6,2.7-10.2,8.2-16.9c-13.4,10.8-25.9,19.4-37.4,25.7c-11.5,6.3-22.1,9.4-31.7,9.4
		c-4.9,0-9.6-0.8-14.1-2.3s-8.5-3.7-11.9-6.6s-6.1-6.4-8.1-10.5s-3-8.9-3-14.2c0-15.4,10.8-32.4,32.5-50.8
		c14.7-12.4,29.5-21.9,44.5-28.7c15-6.8,29.3-10.2,42.7-10.2c6.4,0,12.2,0.8,17.4,2.3c0.3,0,1.5,0.4,3.5,1.1c2.1,0.8,4.3,2,6.6,3.8
		c2.4,1.8,4.5,4,6.4,6.9c1.9,2.8,2.9,6.4,2.9,10.6c0,10.5-6.7,22.8-20.2,36.9c5.5-3.7,10.8-7.2,15.9-10.6c5.1-3.4,9.6-6.4,13.5-9
		s7.1-4.7,9.5-6.2s3.8-2.3,4.1-2.3c0.2-0.2,0.5-0.2,0.9-0.2c1.4,0,2.1,0.7,2.1,2.1c0,0.5-0.8,1.2-2.4,2.2c-1.6,1-4.1,2.5-7.6,4.6
		s-7.8,4.8-13.1,8.4c-5.3,3.5-11.5,7.9-18.7,13.1c-12.8,9.3-22.5,17.6-29,24.7c-6.5,7.2-9.7,13-9.7,17.4c0,2.1,0.7,3.9,2.2,5.4
		c1.4,1.5,3.2,2.6,5.3,3.3c2.1,0.8,4.2,1.3,6.5,1.6c2.3,0.3,4.4,0.5,6.2,0.5c6.9,0,14.1-1.4,21.6-4.2c7.6-2.8,15.2-6.5,22.9-11.1
		s15.3-9.8,22.8-15.6c7.5-5.8,14.5-11.8,21.1-17.9c0.6-0.3,1.1-0.5,1.4-0.5C915.8,1226.7,916.3,1226.9,916.8,1227.4z M740.2,1278.9
		c6.4,0,13-1.3,19.7-4s13.4-6.1,20-10.4s13.2-8.9,19.6-14c6.4-5,12.5-10,18.3-14.9c7.6-6.3,13.9-12,18.8-17.2
		c4.9-5.2,8.8-9.9,11.7-14.2c2.9-4.3,4.9-8.1,6-11.3c1.1-3.3,1.6-6.1,1.6-8.6c0-3.5-0.8-6.4-2.5-8.8s-3.6-4.3-5.6-5.7
		c-2.1-1.4-4-2.5-5.7-3.1c-1.8-0.6-2.7-0.9-2.9-0.9c-5-1.4-10.5-2.1-16.3-2.1c-13,0-26.7,3.3-41.2,10c-14.5,6.6-28.9,16-43.3,28.1
		c-20.8,17.6-31.1,33.4-31.1,47.6c0,4.6,0.9,8.7,2.6,12.4c1.8,3.7,4.1,6.8,7.1,9.3s6.5,4.5,10.5,5.8
		C731.5,1278.2,735.7,1278.9,740.2,1278.9z"/>
	<path class="st2" d="M928.2,1281c-4.4,0-8.2-0.6-11.2-1.8c-3.1-1.2-5.5-2.9-7.4-4.9c-1.9-2.1-3.3-4.4-4.2-7.1s-1.4-5.4-1.4-8.1
		c0-3.2,0.3-6,0.9-8.4c0.6-2.4,1-3.7,1.1-4c2.9-8.1,6.6-16.7,11.1-25.8c4.5-9.1,9.4-18.2,14.5-27.3c5.2-9.1,10.5-17.9,15.9-26.6
		c5.4-8.6,10.5-16.5,15.2-23.7c5-7.8,9.9-15,14.5-21.5c4.7-6.6,8.8-12.3,12.4-17.1c3.6-4.8,7.5-10,11.8-15.7c0-0.2,1.5-1.9,4.5-5.3
		s6.7-7.1,11.1-11.3c4.4-4.2,9.2-8.4,14.3-12.5s9.9-7.1,14.3-8.9c4.3-1.8,8.1-2.7,11.5-2.7c5,0,9,1.6,11.8,4.9s4.2,7.3,4.2,12
		c0,3.2-0.6,6.7-1.8,10.5c-1.2,3.8-2.8,7.6-4.7,11.5c-1.9,3.8-4,7.6-6.4,11.2c-2.4,3.7-4.7,7.1-7,10.3c-6.9,9.5-14.1,18.3-21.6,26.5
		c-7.6,8.2-16.4,16.6-26.5,25.2s-21.9,17.9-35.4,27.7s-29.7,21.2-48.4,34c-2.1,4.4-4.2,8.8-6.1,13.2c-1.9,4.4-3.7,8.7-5.4,12.9
		c-0.3,0.9-0.6,2-0.9,3.2c-0.3,1.1-0.5,2.3-0.7,3.5c-0.2,1.3-0.2,2.6-0.2,4c0,6.1,2,10.7,6.1,13.6c4,3,9,4.5,15,4.5
		c4.7,0,9.8-0.8,15.1-2.5c9.6-2.9,18.4-6,26.5-9.2c8-3.2,15.6-6.8,22.9-10.7c7.2-3.9,14.3-8.2,21.3-12.8c6.9-4.7,14.2-9.9,21.6-15.7
		c0.6-0.3,1.1-0.5,1.4-0.5c1.4,0,2.1,0.7,2.1,2.1c0,0.9-0.2,1.5-0.7,1.6c-7.6,5.8-15,11.1-22.1,15.9s-14.4,9.2-21.8,13.2
		c-7.4,4-15.2,7.6-23.4,11s-17.1,6.4-26.9,9.2c-3.1,0.9-6,1.5-8.9,1.8C933.3,1280.8,930.6,1281,928.2,1281z M1000.4,1097
		c-2.6,3.3-5.9,7.8-10,13.4c-4,5.7-8.7,12.3-14.1,20c-5.3,7.7-10.9,16.1-16.6,25.1c-5.7,9-11.6,18.5-17.5,28.5
		c-6,10-11.6,20.2-16.9,30.6c11.9-8.2,22.6-15.8,32.2-22.6c9.5-6.8,18.2-13.2,25.9-19.2s14.7-11.7,21-17.1c6.3-5.3,12-10.7,17.3-16
		c5.3-5.3,10.2-10.7,14.9-16.1c4.7-5.4,9.2-11.2,13.6-17.3c6.3-8.7,11-16.6,14.2-23.6s4.8-12.9,4.8-17.6c0-3.8-1.1-6.9-3.3-9.2
		c-2.2-2.3-5.2-3.4-8.8-3.4c-3.5,0-7.2,1-11.1,2.9s-7.8,4.3-11.6,7.2c-3.8,2.9-7.5,6-11,9.4s-6.6,6.5-9.4,9.4
		c-2.7,2.9-5.8,6.3-9.2,10.3C1004.4,1091.9,1002.9,1093.7,1000.4,1097z"/>
	<path class="st2" d="M1046.6,1276c-5.3-2.9-9.1-6.7-11.3-11.5c-2.2-4.7-3.3-9.9-3.3-15.6c0-4.4,0.6-9,1.7-13.7s2.7-9.3,4.7-13.6
		s4.2-8.4,6.6-12.1s5-7,7.6-9.7c-2.4-1.2-4.2-2.1-5.4-2.7c-1.1-0.6-1.9-1.1-2.2-1.5c-0.3-0.4-0.4-0.6-0.3-0.8
		c0.1-0.2,0.1-0.4,0.1-0.7c0-1.4,0.7-2.1,2.1-2.1c0.6,0,0.8,0,0.7-0.1c-0.2-0.1-0.2,0,0,0.2s0.7,0.7,1.7,1.3c1,0.6,3.1,1.7,6.3,3.2
		c12.8-13.7,26.2-24.7,40.2-32.8c14-8.1,27.4-12.1,40.4-12.1c4.4,0,8.7,0.6,12.8,1.8c4.1,1.2,7.8,2.9,11,5.2c3.2,2.2,5.8,4.9,7.7,8
		c1.9,3.1,2.9,6.6,2.9,10.4c0,6.4-1.9,12.1-5.8,16.9c-3.9,4.9-8.7,8.9-14.4,12.1c-5.7,3.2-11.9,5.6-18.4,7.2
		c-6.6,1.6-12.6,2.4-18.1,2.4c-6.7,0-13.1-0.6-19.2-1.7s-11.6-2.4-16.6-3.9c-5-1.4-9.3-3-12.9-4.6c-3.7-1.6-6.5-2.9-8.5-3.8
		c-2.3,2.1-4.7,5-7.1,8.6s-4.6,7.5-6.5,11.7s-3.5,8.6-4.8,13.3c-1.3,4.7-1.9,9.2-1.9,13.6c0,8.7,3,15.7,9,20.8
		c6,5.2,15.4,7.8,28.1,7.8c4.9,0,9.8-0.3,14.9-1c5-0.7,9.8-1.5,14.4-2.5s8.7-2.1,12.4-3.2c3.7-1.1,6.6-2.2,8.9-3.1
		c6.1-2.4,12.1-5.1,18-7.9s11.8-6,17.9-9.5c6-3.5,12.3-7.6,18.7-12.3c6.4-4.7,13.3-10.1,20.6-16.4c0.6-0.3,1.1-0.5,1.4-0.5
		c0.5,0,0.9,0.2,1.4,0.5s0.7,0.8,0.7,1.6c0,0.6-0.2,1.1-0.7,1.6c-7.5,6.4-14.5,11.9-21.1,16.6s-12.9,8.8-19,12.4s-12.1,6.8-18.1,9.5
		s-12.1,5.4-18.3,8c-3.4,1.2-7.1,2.4-11.2,3.7c-4.1,1.2-8.4,2.3-12.9,3.2c-4.5,0.9-9.1,1.7-13.9,2.3c-4.7,0.6-9.4,0.9-14,0.9
		c-4.9,0-9.6-0.4-14.2-1.3C1054.4,1279.4,1050.3,1277.9,1046.6,1276z M1065.4,1201.3c2.4,1.1,5.4,2.2,8.8,3.4
		c3.4,1.2,7.2,2.3,11.3,3.3c4.1,1,8.5,1.8,13.3,2.5c4.7,0.7,9.5,1,14.4,1c6.3,0,12.5-0.9,18.8-2.7c6.3-1.8,11.9-4.3,16.9-7.3
		c5-3.1,9.2-6.7,12.4-10.9c3.2-4.2,4.8-8.6,4.8-13.2c0-3.2-0.8-6.1-2.4-8.8c-1.6-2.7-3.8-5-6.5-7s-5.9-3.5-9.5-4.6
		s-7.3-1.6-11.1-1.6c-4.9,0-10.2,0.7-15.9,2.1c-5.7,1.4-11.8,3.7-18.3,7s-13.4,7.7-20.6,13.2c-7.3,5.5-14.8,12.4-22.6,20.8
		L1065.4,1201.3z"/>
</g>
</svg>
