<?xml version="1.0" encoding="utf-8"?>
<!-- Generator: Adobe Illustrator 22.0.0, SVG Export Plug-In . SVG Version: 6.00 Build 0)  -->
<svg version="1.1" id="Camada_1" xmlns="http://www.w3.org/2000/svg" xmlns:xlink="http://www.w3.org/1999/xlink" x="0px" y="0px"
	 viewBox="0 0 1274.5 1316" style="enable-background:new 0 0 1274.5 1316;" xml:space="preserve">
<style type="text/css">
	.st0{display:none;}
	.st1{fill:none;stroke:#000000;stroke-width:21;stroke-linecap:round;stroke-linejoin:round;stroke-miterlimit:10;}
	.st2{fill:#F84AA7;stroke:#F84AA7;stroke-width:8;stroke-miterlimit:10;}
</style>
<g id="Camada_1_1_" class="st0">
	
		<image style="display:inline;overflow:visible;enable-background:new    ;" width="1003" height="1500" xlink:href="84F4E53929D8AD4C.jpeg"  transform="matrix(1 0 0 1 11.7702 -191.7368)">
	</image>
</g>
<g id="Camada_2_1_">
	<path class="st1" d="M576.8,1308.3c0,0-22-261,24-334c0,0,18.5,64.5,74.8,60.3c0,0,5-5.5,16.3-4.5c0,0,16.8,15.3,23,19.3
		s11.8,3.5,17.5,2s6.8-5,20.5-5.5c0,0,3.3,0.3,4.3-2.8s1-5.8,7-4.5s21.3,4.3,23.3-16c0,0,21.3,1,64.3,23.3c0,0,15.9,16.5,42.6,7.2
		c26.7-9.3,60.7-15,70.3-14.3c9.7,0.7,23.7-12,26.7-19s8.7-32.7,8.7-40s3.3-41-16.3-75.3c-19.7-34.3-97-98.3-97-98.3
		s2-79.7-16.7-125.7s-50.4-134.6-98-224.7c0,0-32-58.7-39.3-78s-39.3-69.3-50-82s-25.7-30.1-34.4-43.8s-14.8-15-14.8-15
		s-10.8-5.8-16.5-15.5s-21.5-9-21.5-9s-12,3-20-2.8s-10.5-6.5-10.5-6.5s-5.8-5.5-16.5,0c0,0-16.3,11.3-25,20.8s-21.5,16.3-21.5,16.3
		l-30.3,23c0,0-10.5,7.8-5.5,23s7,13.8,5.3,25c0,0-7.3,2.3-8.8,12s-5.3,12,1.3,17.3s18,6.8,23.8,15s15,10.5,22.8,11.5
		c7.8,1,19.3,5.3,21.3,7.5s17,17,71.5,16.3c0,0,11.8-1.3,14.3,5.8S679.1,477,680.6,663c0,0-18.5-10.3-22.8-21.5s-20.7-39.5-34-54
		s-17-25.8-17-25.8s-4.5-9-11.8-12.5s-13.8-7.5-13.8-7.5s-8.5-3.5-19,0.5s-20,5.8-27.3,3.8s-17.3-1.5-25,1.3
		c-7.7,2.8-10.5,3.5-19.3,1.3c0,0-11.3-5.5-25.3,5.5c0,0-4.5,13-10.3,14.8c0,0-23-29.3-65.5-47.3v-37.3c0,0,27-39,27.3-104.8
		l3.5-3.5c0,0,22.5-59.5,24-69.3s0.8-36.5-10.8-53s-42.5-55.8-57.8-95.5s-40.5-61.5-40.5-61.5s-1.5-1.8-5-2.8s-6.4-17.4-20.4-16.9
		c0,0-10.3-20.5-32.3-20s-28.7-7.5-28.7-7.5l38.8-35.8c0,0,0.5-2.5-2.8-3s-31,14.5-44.3,14s-39,2-49.5,6.5s-28.5,15.5-34.8,16.5
		s-19.5,0-29.8,41.8c0,0-31.5,2.3-41,13s-23.6,27.8-25.6,28.8S39,155.1,38,158.3s-26.2,32.5-26.2,32.5s31.8-12.8,42.8-10
		c0,0-15.8,29.3-15.3,50s1.3,95.8,10.3,113s8.3,12,10.5,19s12,13.5,12,13.5s15.5,16.5,18,27.8s13.8,35,45.3,41.5
		c0,0,13.3-0.5,17.8,3.5s11,9.5,16,11.3c0,0,2.3,23.3,0.5,34.8c0,0-46.3,6.3-52.5,10.3s-9,8-7.8,17.8s13.5,54.3,7,75
		c0,0-17,11.3-18.5,12.5s-8.5,4.3-2.5,24.5c0,0,0.8,4-0.3,6.3s-0.8,16.3,0.8,20c0,0-17,38-16.8,78.8c0,0-1.5,16.8-3.5,26.3
		s7.3,178,68.3,282s135,260,135,260h297.9V1308.3z"/>
</g>
<g>
	<path class="st2" d="M916.8,1227.4c0.3,0.6,0.5,1.1,0.5,1.6c0,0.3-0.2,0.8-0.5,1.4c-5.5,5-11.9,10.5-19.1,16.3
		c-7.3,5.8-14.9,11.2-22.9,16.1c-8,5-16.2,9.1-24.6,12.4c-8.4,3.3-16.6,4.9-24.5,4.9c-2.3,0-4.8-0.2-7.7-0.6c-2.8-0.4-5.5-1.1-8-2.3
		c-2.5-1.1-4.6-2.7-6.3-4.7c-1.7-2-2.5-4.5-2.5-7.6c0-4.6,2.7-10.2,8.2-16.9c-13.4,10.8-25.9,19.4-37.4,25.7
		c-11.5,6.3-22.1,9.4-31.7,9.4c-4.9,0-9.6-0.8-14.1-2.3c-4.5-1.5-8.5-3.7-11.9-6.6c-3.4-2.9-6.1-6.4-8.1-10.5c-2-4.1-3-8.9-3-14.2
		c0-15.4,10.8-32.4,32.5-50.8c14.7-12.4,29.5-21.9,44.5-28.7c15-6.8,29.3-10.2,42.7-10.2c6.4,0,12.2,0.8,17.4,2.3
		c0.3,0,1.5,0.4,3.5,1.1c2.1,0.8,4.3,2,6.6,3.8c2.4,1.8,4.5,4,6.4,6.9c1.9,2.8,2.9,6.4,2.9,10.6c0,10.5-6.7,22.8-20.2,36.9
		c5.5-3.7,10.8-7.2,15.9-10.6c5.1-3.4,9.6-6.4,13.5-9c3.9-2.6,7.1-4.7,9.5-6.2c2.4-1.5,3.8-2.3,4.1-2.3c0.2-0.2,0.5-0.2,0.9-0.2
		c1.4,0,2.1,0.7,2.1,2.1c0,0.5-0.8,1.2-2.4,2.2c-1.6,1-4.1,2.5-7.6,4.6s-7.8,4.8-13.1,8.4c-5.3,3.5-11.5,7.9-18.7,13.1
		c-12.8,9.3-22.5,17.6-29,24.7c-6.5,7.2-9.7,13-9.7,17.4c0,2.1,0.7,3.9,2.2,5.4c1.4,1.5,3.2,2.6,5.3,3.3c2.1,0.8,4.2,1.3,6.5,1.6
		c2.3,0.3,4.4,0.5,6.2,0.5c6.9,0,14.1-1.4,21.6-4.2c7.6-2.8,15.2-6.5,22.9-11.1c7.7-4.6,15.3-9.8,22.8-15.6
		c7.5-5.8,14.5-11.8,21.1-17.9c0.6-0.3,1.1-0.5,1.4-0.5C915.8,1226.7,916.3,1226.9,916.8,1227.4z M740.2,1278.9c6.4,0,13-1.3,19.7-4
		c6.7-2.7,13.4-6.1,20-10.4c6.6-4.3,13.2-8.9,19.6-14c6.4-5,12.5-10,18.3-14.9c7.6-6.3,13.9-12,18.8-17.2c4.9-5.2,8.8-9.9,11.7-14.2
		c2.9-4.3,4.9-8.1,6-11.3c1.1-3.3,1.6-6.1,1.6-8.6c0-3.5-0.8-6.4-2.5-8.8c-1.7-2.4-3.6-4.3-5.6-5.7c-2.1-1.4-4-2.5-5.7-3.1
		c-1.8-0.6-2.7-0.9-2.9-0.9c-5-1.4-10.5-2.1-16.3-2.1c-13,0-26.7,3.3-41.2,10c-14.5,6.6-28.9,16-43.3,28.1
		c-20.8,17.6-31.1,33.4-31.1,47.6c0,4.6,0.9,8.7,2.6,12.4c1.8,3.7,4.1,6.8,7.1,9.3c3,2.5,6.5,4.5,10.5,5.8
		C731.5,1278.2,735.7,1278.9,740.2,1278.9z"/>
	<path class="st2" d="M928.2,1281c-4.4,0-8.2-0.6-11.2-1.8c-3.1-1.2-5.5-2.9-7.4-4.9c-1.9-2.1-3.3-4.4-4.2-7.1
		c-0.9-2.7-1.4-5.4-1.4-8.1c0-3.2,0.3-6,0.9-8.4c0.6-2.4,1-3.7,1.1-4c2.9-8.1,6.6-16.7,11.1-25.8c4.5-9.1,9.4-18.2,14.5-27.3
		c5.2-9.1,10.5-17.9,15.9-26.6c5.4-8.6,10.5-16.5,15.2-23.7c5-7.8,9.9-15,14.5-21.5c4.7-6.6,8.8-12.3,12.4-17.1
		c3.6-4.8,7.5-10,11.8-15.7c0-0.2,1.5-1.9,4.5-5.3c3-3.4,6.7-7.1,11.1-11.3c4.4-4.2,9.2-8.4,14.3-12.5c5.1-4.1,9.9-7.1,14.3-8.9
		c4.3-1.8,8.1-2.7,11.5-2.7c5,0,9,1.6,11.8,4.9c2.8,3.3,4.2,7.3,4.2,12c0,3.2-0.6,6.7-1.8,10.5c-1.2,3.8-2.8,7.6-4.7,11.5
		c-1.9,3.8-4,7.6-6.4,11.2c-2.4,3.7-4.7,7.1-7,10.3c-6.9,9.5-14.1,18.3-21.6,26.5c-7.6,8.2-16.4,16.6-26.5,25.2
		c-10.1,8.6-21.9,17.9-35.4,27.7s-29.7,21.2-48.4,34c-2.1,4.4-4.2,8.8-6.1,13.2c-1.9,4.4-3.7,8.7-5.4,12.9c-0.3,0.9-0.6,2-0.9,3.2
		c-0.3,1.1-0.5,2.3-0.7,3.5c-0.2,1.3-0.2,2.6-0.2,4c0,6.1,2,10.7,6.1,13.6c4,3,9,4.5,15,4.5c4.7,0,9.8-0.8,15.1-2.5
		c9.6-2.9,18.4-6,26.5-9.2c8-3.2,15.6-6.8,22.9-10.7c7.2-3.9,14.3-8.2,21.3-12.8c6.9-4.7,14.2-9.9,21.6-15.7
		c0.6-0.3,1.1-0.5,1.4-0.5c1.4,0,2.1,0.7,2.1,2.1c0,0.9-0.2,1.5-0.7,1.6c-7.6,5.8-15,11.1-22.1,15.9c-7.1,4.8-14.4,9.2-21.8,13.2
		c-7.4,4-15.2,7.6-23.4,11c-8.2,3.4-17.1,6.4-26.9,9.2c-3.1,0.9-6,1.5-8.9,1.8C933.3,1280.8,930.6,1281,928.2,1281z M1000.4,1097
		c-2.6,3.3-5.9,7.8-10,13.4c-4,5.7-8.7,12.3-14.1,20c-5.3,7.7-10.9,16.1-16.6,25.1c-5.7,9-11.6,18.5-17.5,28.5
		c-6,10-11.6,20.2-16.9,30.6c11.9-8.2,22.6-15.8,32.2-22.6c9.5-6.8,18.2-13.2,25.9-19.2c7.7-6,14.7-11.7,21-17.1
		c6.3-5.3,12-10.7,17.3-16c5.3-5.3,10.2-10.7,14.9-16.1c4.7-5.4,9.2-11.2,13.6-17.3c6.3-8.7,11-16.6,14.2-23.6
		c3.2-7,4.8-12.9,4.8-17.6c0-3.8-1.1-6.9-3.3-9.2c-2.2-2.3-5.2-3.4-8.8-3.4c-3.5,0-7.2,1-11.1,2.9c-3.9,1.9-7.8,4.3-11.6,7.2
		c-3.8,2.9-7.5,6-11,9.4c-3.5,3.4-6.6,6.5-9.4,9.4c-2.7,2.9-5.8,6.3-9.2,10.3C1004.4,1091.9,1002.9,1093.7,1000.4,1097z"/>
	<path class="st2" d="M1046.6,1276c-5.3-2.9-9.1-6.7-11.3-11.5c-2.2-4.7-3.3-9.9-3.3-15.6c0-4.4,0.6-9,1.7-13.7
		c1.1-4.7,2.7-9.3,4.7-13.6s4.2-8.4,6.6-12.1c2.4-3.7,5-7,7.6-9.7c-2.4-1.2-4.2-2.1-5.4-2.7c-1.1-0.6-1.9-1.1-2.2-1.5
		c-0.3-0.4-0.4-0.6-0.3-0.8c0.1-0.2,0.1-0.4,0.1-0.7c0-1.4,0.7-2.1,2.1-2.1c0.6,0,0.8,0,0.7-0.1c-0.2-0.1-0.2,0,0,0.2
		c0.2,0.2,0.7,0.7,1.7,1.3c1,0.6,3.1,1.7,6.3,3.2c12.8-13.7,26.2-24.7,40.2-32.8c14-8.1,27.4-12.1,40.4-12.1c4.4,0,8.7,0.6,12.8,1.8
		c4.1,1.2,7.8,2.9,11,5.2c3.2,2.2,5.8,4.9,7.7,8c1.9,3.1,2.9,6.6,2.9,10.4c0,6.4-1.9,12.1-5.8,16.9c-3.9,4.9-8.7,8.9-14.4,12.1
		c-5.7,3.2-11.9,5.6-18.4,7.2c-6.6,1.6-12.6,2.4-18.1,2.4c-6.7,0-13.1-0.6-19.2-1.7c-6.1-1.1-11.6-2.4-16.6-3.9
		c-5-1.4-9.3-3-12.9-4.6c-3.7-1.6-6.5-2.9-8.5-3.8c-2.3,2.1-4.7,5-7.1,8.6c-2.4,3.6-4.6,7.5-6.5,11.7c-1.9,4.2-3.5,8.6-4.8,13.3
		c-1.3,4.7-1.9,9.2-1.9,13.6c0,8.7,3,15.7,9,20.8c6,5.2,15.4,7.8,28.1,7.8c4.9,0,9.8-0.3,14.9-1c5-0.7,9.8-1.5,14.4-2.5
		c4.6-1,8.7-2.1,12.4-3.2c3.7-1.1,6.6-2.2,8.9-3.1c6.1-2.4,12.1-5.1,18-7.9c5.9-2.8,11.8-6,17.9-9.5c6-3.5,12.3-7.6,18.7-12.3
		c6.4-4.7,13.3-10.1,20.6-16.4c0.6-0.3,1.1-0.5,1.4-0.5c0.5,0,0.9,0.2,1.4,0.5c0.5,0.3,0.7,0.8,0.7,1.6c0,0.6-0.2,1.1-0.7,1.6
		c-7.5,6.4-14.5,11.9-21.1,16.6c-6.6,4.7-12.9,8.8-19,12.4c-6.1,3.6-12.1,6.8-18.1,9.5c-6,2.7-12.1,5.4-18.3,8
		c-3.4,1.2-7.1,2.4-11.2,3.7c-4.1,1.2-8.4,2.3-12.9,3.2c-4.5,0.9-9.1,1.7-13.9,2.3c-4.7,0.6-9.4,0.9-14,0.9c-4.9,0-9.6-0.4-14.2-1.3
		C1054.4,1279.4,1050.3,1277.9,1046.6,1276z M1065.4,1201.3c2.4,1.1,5.4,2.2,8.8,3.4c3.4,1.2,7.2,2.3,11.3,3.3
		c4.1,1,8.5,1.8,13.3,2.5c4.7,0.7,9.5,1,14.4,1c6.3,0,12.5-0.9,18.8-2.7c6.3-1.8,11.9-4.3,16.9-7.3c5-3.1,9.2-6.7,12.4-10.9
		c3.2-4.2,4.8-8.6,4.8-13.2c0-3.2-0.8-6.1-2.4-8.8c-1.6-2.7-3.8-5-6.5-7c-2.7-2-5.9-3.5-9.5-4.6c-3.6-1.1-7.3-1.6-11.1-1.6
		c-4.9,0-10.2,0.7-15.9,2.1c-5.7,1.4-11.8,3.7-18.3,7c-6.5,3.3-13.4,7.7-20.6,13.2c-7.3,5.5-14.8,12.4-22.6,20.8L1065.4,1201.3z"/>
</g>
</svg>
